<svg width="297" height="141" viewBox="0 0 297 141" fill="none" xmlns="http://www.w3.org/2000/svg">
<g clip-path="url(#clip0_1_2)">
<path d="M17 45.6044C17 45.6044 19 45.6044 23 45.6044C28 45.6044 34 45.6044 40 45.6044C46 45.6044 51 45.6044 56 45.6044C60 45.6044 63 45.6044 65 45.6044C66 45.6044 66 45.6044 66 45.6044C66 46.6087 66 46.6087 66 46.6087C66 46.6087 66 47.613 65 48.6173C64 49.6216 62.8269 51.4823 62 52.6345C60.6926 54.4563 58.5226 57.2869 54 63.6818C47.247 73.2304 39.8856 84.6933 31 97.828C22.8951 109.809 12.367 126.147 9 131.974C7.19028 135.106 6 136.996 5 138C5 138 5.14935 137.524 6 136.996C7.90211 135.815 11.0179 133.01 18 128.961C30.0311 121.985 43.5941 114.824 58 104.858C72.6625 94.7146 81 86.7807 86 82.7635L89 79.7506" stroke="black" stroke-width="1.5"/>
<path d="M22 90.7979C22 90.7979 23.3806 92.7195 28 90.7979C29.3066 90.2544 35.0331 87.8721 43 84.7721C53.0429 80.8643 59 77.742 63 75.7334C65 74.7291 67 73.7248 68 73.7248H67" stroke="black" stroke-width="1.5"/>
<path d="M83 40.5829C83 40.5829 81.6904 43.9513 85 53.6388C85.7257 55.7629 87.7966 61.7668 92 70.7119C95.8173 78.8355 99.0837 84.7226 102 89.7936C107.149 98.7474 108.144 102.783 109 104.858C110.21 107.792 110.617 108.952 111 109.88C111.541 111.192 112 111.888 112 111.888V112.893" stroke="black" stroke-width="1.5"/>
<path d="M98 79.7506C98 79.7506 98 78.7463 98 77.742C98 72.7205 98.1909 64.7316 100 56.6517C102.237 46.6593 105.733 34.4932 108 25.5184C109.79 18.4316 111.337 13.1555 113 10.4539C113.743 9.24574 114.293 10.1598 115 9.44961C115.707 8.73946 115 8.44531 116 8.44531V9.44961V10.4539V11.4582" stroke="black" stroke-width="1.5"/>
<path d="M96 72.7205C96 72.7205 97.1989 72.2509 100 73.7248C104.429 76.0553 106.593 76.8444 113 81.7592C115.248 83.4834 117.076 84.3878 118 84.7721C119.307 85.3156 120 85.7764 121 86.7807C123 88.7893 124.705 91.1456 127 92.8065C128.814 94.1196 130 94.8151 131 95.8194L132 96.8237C133 96.8237 133.293 97.1179 134 97.828C134.707 98.5381 135 98.8323 135 98.8323C136 99.8366 138.293 100.131 139 100.841C139.707 101.551 139.693 102.306 141 102.849C141.924 103.234 142.293 104.148 143 104.858C143.707 105.568 144 105.862 145 105.862" stroke="black" stroke-width="1.5"/>
<path d="M150 38.5743C150 38.5743 150 39.5786 150 45.6044C150 46.6087 149.93 53.6484 152 68.7033C153.935 82.7727 154.938 92.8136 156 101.845C156.945 109.886 157.486 113.72 158 115.905C158.23 116.883 158 117.914 158 117.914C158 118.918 158 119.923 158 119.923C159 120.927 159 121.931 159 122.936C159 124.944 159 125.948 160 125.948" stroke="black" stroke-width="1.5"/>
<path d="M150 44.6001C151 44.6001 151 44.6001 156 44.6001C157 44.6001 163.056 43.9734 171 42.5915C180.084 41.0112 187.947 39.0777 195 38.5743C199.987 38.2183 204.487 37.6509 207 39.5786C209.865 41.7766 209.79 44.6789 211 47.613C211.856 49.6878 213.486 52.4575 214 54.6431C214.46 56.598 214 57.656 214 58.6603C214 59.6646 212.924 60.2846 212 60.6689C210.693 61.2124 209.924 61.2889 209 61.6732C207.693 62.2167 206.848 61.9089 205 62.6775C203.693 63.221 202 63.6818 200 64.6861C198 65.6904 196.203 65.948 195 66.6947C192.31 68.3644 188.804 68.3507 185 70.7119C180.747 73.3519 178.118 75.9245 175 77.742C173.066 78.8692 171 79.7506 171 79.7506C170 79.7506 169 80.7549 169 80.7549C169 80.7549 168.707 81.0491 168 81.7592C167.293 82.4694 167.383 82.84 167 83.7678C166.459 85.08 166 84.7721 166 85.7764L165 86.7807C164 87.785 163.526 87.935 163 88.7893C161.824 90.6996 160 91.8022 159 92.8065C158 93.8108 158 93.8108 157 94.8151" stroke="black" stroke-width="1.5"/>
<path d="M212.159 124.114C210.932 124.114 209.875 123.824 208.989 123.244C208.102 122.665 207.42 121.866 206.943 120.849C206.466 119.832 206.227 118.67 206.227 117.364C206.227 116.034 206.472 114.861 206.96 113.844C207.455 112.821 208.142 112.023 209.023 111.449C209.909 110.869 210.943 110.58 212.125 110.58C213.045 110.58 213.875 110.75 214.614 111.091C215.352 111.432 215.957 111.909 216.429 112.523C216.901 113.136 217.193 113.852 217.307 114.67H215.295C215.142 114.074 214.801 113.545 214.273 113.085C213.75 112.619 213.045 112.386 212.159 112.386C211.375 112.386 210.688 112.591 210.097 113C209.511 113.403 209.054 113.974 208.724 114.713C208.401 115.446 208.239 116.307 208.239 117.295C208.239 118.307 208.398 119.188 208.716 119.938C209.04 120.688 209.494 121.27 210.08 121.685C210.67 122.099 211.364 122.307 212.159 122.307C212.682 122.307 213.156 122.216 213.582 122.034C214.009 121.852 214.369 121.591 214.665 121.25C214.96 120.909 215.17 120.5 215.295 120.023H217.307C217.193 120.795 216.912 121.491 216.463 122.111C216.02 122.724 215.432 123.213 214.699 123.577C213.972 123.935 213.125 124.114 212.159 124.114ZM225.565 124.114C224.384 124.114 223.347 123.832 222.455 123.27C221.568 122.707 220.875 121.92 220.375 120.909C219.881 119.898 219.634 118.716 219.634 117.364C219.634 116 219.881 114.81 220.375 113.793C220.875 112.776 221.568 111.986 222.455 111.423C223.347 110.861 224.384 110.58 225.565 110.58C226.747 110.58 227.781 110.861 228.668 111.423C229.56 111.986 230.253 112.776 230.747 113.793C231.247 114.81 231.497 116 231.497 117.364C231.497 118.716 231.247 119.898 230.747 120.909C230.253 121.92 229.56 122.707 228.668 123.27C227.781 123.832 226.747 124.114 225.565 124.114ZM225.565 122.307C226.463 122.307 227.202 122.077 227.781 121.616C228.361 121.156 228.79 120.551 229.068 119.801C229.347 119.051 229.486 118.239 229.486 117.364C229.486 116.489 229.347 115.673 229.068 114.918C228.79 114.162 228.361 113.551 227.781 113.085C227.202 112.619 226.463 112.386 225.565 112.386C224.668 112.386 223.929 112.619 223.349 113.085C222.77 113.551 222.341 114.162 222.062 114.918C221.784 115.673 221.645 116.489 221.645 117.364C221.645 118.239 221.784 119.051 222.062 119.801C222.341 120.551 222.77 121.156 223.349 121.616C223.929 122.077 224.668 122.307 225.565 122.307ZM242.817 118.489V110.75H244.829V123.841H242.817V121.625H242.681C242.374 122.29 241.897 122.855 241.249 123.321C240.602 123.781 239.783 124.011 238.795 124.011C237.977 124.011 237.249 123.832 236.613 123.474C235.977 123.111 235.477 122.565 235.113 121.838C234.749 121.105 234.567 120.182 234.567 119.068V110.75H236.579V118.932C236.579 119.886 236.846 120.648 237.38 121.216C237.92 121.784 238.607 122.068 239.442 122.068C239.942 122.068 240.451 121.94 240.968 121.685C241.491 121.429 241.928 121.037 242.281 120.509C242.638 119.98 242.817 119.307 242.817 118.489ZM248.513 123.841V110.75H250.456V112.727H250.592C250.831 112.08 251.263 111.554 251.888 111.151C252.513 110.747 253.217 110.545 254.001 110.545C254.149 110.545 254.334 110.548 254.555 110.554C254.777 110.56 254.945 110.568 255.058 110.58V112.625C254.99 112.608 254.834 112.582 254.589 112.548C254.351 112.509 254.098 112.489 253.831 112.489C253.195 112.489 252.626 112.622 252.126 112.889C251.632 113.151 251.24 113.514 250.95 113.98C250.666 114.44 250.524 114.966 250.524 115.557V123.841H248.513ZM266.715 113.682L264.908 114.193C264.795 113.892 264.627 113.599 264.406 113.315C264.19 113.026 263.894 112.787 263.519 112.599C263.144 112.412 262.664 112.318 262.079 112.318C261.278 112.318 260.61 112.503 260.076 112.872C259.548 113.236 259.283 113.699 259.283 114.261C259.283 114.761 259.465 115.156 259.829 115.446C260.192 115.736 260.761 115.977 261.533 116.17L263.477 116.648C264.647 116.932 265.519 117.366 266.093 117.952C266.667 118.531 266.954 119.278 266.954 120.193C266.954 120.943 266.738 121.614 266.306 122.205C265.88 122.795 265.283 123.261 264.516 123.602C263.749 123.943 262.857 124.114 261.84 124.114C260.505 124.114 259.4 123.824 258.525 123.244C257.65 122.665 257.096 121.818 256.863 120.705L258.772 120.227C258.954 120.932 259.298 121.46 259.803 121.813C260.315 122.165 260.982 122.341 261.806 122.341C262.744 122.341 263.488 122.142 264.039 121.744C264.596 121.341 264.874 120.858 264.874 120.295C264.874 119.841 264.715 119.46 264.397 119.153C264.079 118.841 263.59 118.608 262.931 118.455L260.749 117.943C259.55 117.659 258.67 117.219 258.107 116.622C257.55 116.02 257.272 115.267 257.272 114.364C257.272 113.625 257.479 112.972 257.894 112.403C258.315 111.835 258.886 111.389 259.607 111.065C260.335 110.741 261.158 110.58 262.079 110.58C263.374 110.58 264.391 110.864 265.13 111.432C265.874 112 266.403 112.75 266.715 113.682ZM275.47 124.114C274.209 124.114 273.121 123.835 272.206 123.278C271.297 122.716 270.595 121.932 270.101 120.926C269.612 119.915 269.368 118.739 269.368 117.398C269.368 116.057 269.612 114.875 270.101 113.852C270.595 112.824 271.283 112.023 272.163 111.449C273.05 110.869 274.084 110.58 275.266 110.58C275.947 110.58 276.621 110.693 277.286 110.92C277.95 111.148 278.555 111.517 279.101 112.028C279.646 112.534 280.081 113.205 280.405 114.04C280.729 114.875 280.891 115.903 280.891 117.125V117.977H270.8V116.239H278.845C278.845 115.5 278.697 114.841 278.402 114.261C278.112 113.682 277.697 113.224 277.158 112.889C276.624 112.554 275.993 112.386 275.266 112.386C274.464 112.386 273.771 112.585 273.186 112.983C272.607 113.375 272.161 113.886 271.848 114.517C271.536 115.148 271.379 115.824 271.379 116.545V117.705C271.379 118.693 271.55 119.531 271.891 120.219C272.237 120.901 272.717 121.42 273.331 121.778C273.945 122.131 274.658 122.307 275.47 122.307C275.999 122.307 276.476 122.233 276.902 122.085C277.334 121.932 277.706 121.705 278.018 121.403C278.331 121.097 278.572 120.716 278.743 120.261L280.686 120.807C280.482 121.466 280.138 122.045 279.655 122.545C279.172 123.04 278.575 123.426 277.865 123.705C277.155 123.977 276.357 124.114 275.47 124.114Z" fill="black"/>
<path d="M172 128.961H295" stroke="black" stroke-width="1.5"/>
</g>
<defs>
<clipPath id="clip0_1_2">
<rect width="297" height="141" fill="white"/>
</clipPath>
</defs>
</svg>
